<svg width="159" height="29" viewBox="0 0 159 29" fill="none" xmlns="http://www.w3.org/2000/svg">
<path d="M23.3353 3.05833C23.3353 3.05833 24.3009 6.44534 22.1193 14.6155C19.1585 25.7035 16.0531 27.9959 11.4006 26.745C6.74817 25.494 5.20104 21.9506 8.16178 10.8626C11.1225 -0.225441 17.2917 1.09836 18.7969 3.71448C20.4998 6.67428 17.7367 14.688 17.7367 14.688C17.7367 14.688 15.9262 21.0815 13.1148 20.3256C9.04381 19.231 13.5934 9.19564 13.5934 9.19564" stroke="#0E80DE" stroke-width="2" stroke-linecap="round" stroke-linejoin="round"/>
<path d="M43.2334 21L39.5332 10.2686H39.4541C39.4717 10.5088 39.4922 10.8369 39.5156 11.2529C39.5391 11.6689 39.5596 12.1143 39.5771 12.5889C39.5947 13.0635 39.6035 13.5176 39.6035 13.9512V21H37.6875V8.15039H40.6494L44.209 18.4072H44.2617L47.9443 8.15039H50.8975V21H48.8848V13.8457C48.8848 13.4531 48.8906 13.0283 48.9023 12.5713C48.9199 12.1143 48.9375 11.6807 48.9551 11.2705C48.9785 10.8604 48.9961 10.5322 49.0078 10.2861H48.9375L45.0967 21H43.2334ZM52.6025 11.2705H54.8525L56.8477 16.8252C56.9355 17.0771 57.0146 17.3262 57.085 17.5723C57.1611 17.8125 57.2256 18.0498 57.2783 18.2842C57.3369 18.5186 57.3838 18.7529 57.4189 18.9873H57.4717C57.5303 18.6826 57.6123 18.3428 57.7178 17.9678C57.8291 17.5869 57.9521 17.2061 58.0869 16.8252L60.0029 11.2705H62.2266L58.0518 22.3359C57.8115 22.9688 57.5156 23.5078 57.1641 23.9531C56.8184 24.4043 56.4082 24.7441 55.9336 24.9727C55.459 25.207 54.917 25.3242 54.3076 25.3242C54.0146 25.3242 53.7598 25.3066 53.543 25.2715C53.3262 25.2422 53.1416 25.21 52.9893 25.1748V23.5225C53.1123 23.5518 53.2676 23.5781 53.4551 23.6016C53.6426 23.625 53.8359 23.6367 54.0352 23.6367C54.4043 23.6367 54.7236 23.5635 54.9932 23.417C55.2627 23.2705 55.4912 23.0625 55.6787 22.793C55.8662 22.5293 56.0215 22.2275 56.1445 21.8877L56.4873 20.9736L52.6025 11.2705ZM68.5898 21V8.15039H76.4297V9.93457H70.6992V13.3447H72.2373C73.4561 13.3447 74.4346 13.5059 75.1729 13.8281C75.9111 14.1445 76.4443 14.5869 76.7725 15.1553C77.1006 15.7236 77.2646 16.377 77.2646 17.1152C77.2646 18.3398 76.875 19.2949 76.0957 19.9805C75.3223 20.6602 74.0654 21 72.3252 21H68.5898ZM70.6992 19.2422H72.1934C73.1836 19.2422 73.9189 19.0752 74.3994 18.7412C74.8799 18.4014 75.1201 17.8594 75.1201 17.1152C75.1201 16.5938 75.0029 16.1895 74.7686 15.9023C74.5342 15.6094 74.1826 15.4043 73.7139 15.2871C73.251 15.1699 72.665 15.1113 71.9561 15.1113H70.6992V19.2422ZM78.1611 11.2705H80.4111L82.4062 16.8252C82.4941 17.0771 82.5732 17.3262 82.6436 17.5723C82.7197 17.8125 82.7842 18.0498 82.8369 18.2842C82.8955 18.5186 82.9424 18.7529 82.9775 18.9873H83.0303C83.0889 18.6826 83.1709 18.3428 83.2764 17.9678C83.3877 17.5869 83.5107 17.2061 83.6455 16.8252L85.5615 11.2705H87.7852L83.6104 22.3359C83.3701 22.9688 83.0742 23.5078 82.7227 23.9531C82.377 24.4043 81.9668 24.7441 81.4922 24.9727C81.0176 25.207 80.4756 25.3242 79.8662 25.3242C79.5732 25.3242 79.3184 25.3066 79.1016 25.2715C78.8848 25.2422 78.7002 25.21 78.5479 25.1748V23.5225C78.6709 23.5518 78.8262 23.5781 79.0137 23.6016C79.2012 23.625 79.3945 23.6367 79.5938 23.6367C79.9629 23.6367 80.2822 23.5635 80.5518 23.417C80.8213 23.2705 81.0498 23.0625 81.2373 22.793C81.4248 22.5293 81.5801 22.2275 81.7031 21.8877L82.0459 20.9736L78.1611 11.2705ZM91.415 16.0254L88.1631 11.2705H90.5186L92.7422 14.6895L94.9746 11.2705H97.3213L94.0518 16.0254L97.4883 21H95.124L92.7422 17.3525L90.3516 21H88.0049L91.415 16.0254ZM105.486 11.2705V12.8965H101.25V21H99.1758V11.2705H105.486ZM111.182 11.0859C112.412 11.0859 113.341 11.3584 113.968 11.9033C114.601 12.4482 114.917 13.2979 114.917 14.4521V21H113.449L113.054 19.6201H112.983C112.708 19.9717 112.424 20.2617 112.131 20.4902C111.838 20.7188 111.498 20.8887 111.111 21C110.73 21.1172 110.265 21.1758 109.714 21.1758C109.134 21.1758 108.615 21.0703 108.158 20.8594C107.701 20.6426 107.341 20.3145 107.077 19.875C106.813 19.4355 106.682 18.8789 106.682 18.2051C106.682 17.2031 107.054 16.4502 107.798 15.9463C108.548 15.4424 109.679 15.1641 111.19 15.1113L112.878 15.0498V14.54C112.878 13.8662 112.72 13.3857 112.403 13.0986C112.093 12.8115 111.653 12.668 111.085 12.668C110.599 12.668 110.127 12.7383 109.67 12.8789C109.213 13.0195 108.768 13.1924 108.334 13.3975L107.666 11.9385C108.141 11.6865 108.68 11.4814 109.283 11.3232C109.893 11.165 110.525 11.0859 111.182 11.0859ZM112.869 16.3506L111.612 16.3945C110.581 16.4297 109.857 16.6055 109.441 16.9219C109.025 17.2383 108.817 17.6719 108.817 18.2227C108.817 18.7031 108.961 19.0547 109.248 19.2773C109.535 19.4941 109.913 19.6025 110.382 19.6025C111.097 19.6025 111.688 19.4004 112.157 18.9961C112.632 18.5859 112.869 17.9854 112.869 17.1943V16.3506ZM125.815 21H123.732V12.8877H121.034C120.917 14.3643 120.771 15.627 120.595 16.6758C120.419 17.7246 120.199 18.5801 119.936 19.2422C119.672 19.8984 119.347 20.3789 118.96 20.6836C118.573 20.9883 118.107 21.1406 117.562 21.1406C117.322 21.1406 117.105 21.123 116.912 21.0879C116.719 21.0586 116.546 21.0117 116.394 20.9473V19.3213C116.493 19.3564 116.602 19.3857 116.719 19.4092C116.836 19.4326 116.956 19.4443 117.079 19.4443C117.296 19.4443 117.495 19.3564 117.677 19.1807C117.864 18.999 118.037 18.7148 118.195 18.3281C118.354 17.9414 118.497 17.4316 118.626 16.7988C118.755 16.1602 118.872 15.3867 118.978 14.4785C119.083 13.5645 119.177 12.4951 119.259 11.2705H125.815V21ZM136.125 12.8965H132.926V21H130.869V12.8965H127.688V11.2705H136.125V12.8965ZM141.882 11.0859C142.749 11.0859 143.493 11.2646 144.114 11.6221C144.735 11.9795 145.213 12.4863 145.547 13.1426C145.881 13.7988 146.048 14.584 146.048 15.498V16.6055H139.553C139.576 17.5488 139.828 18.2754 140.309 18.7852C140.795 19.2949 141.475 19.5498 142.348 19.5498C142.969 19.5498 143.525 19.4912 144.018 19.374C144.516 19.251 145.028 19.0723 145.556 18.8379V20.5166C145.069 20.7451 144.574 20.9121 144.07 21.0176C143.566 21.123 142.963 21.1758 142.26 21.1758C141.305 21.1758 140.464 20.9912 139.737 20.6221C139.017 20.2471 138.451 19.6904 138.041 18.9521C137.637 18.2139 137.435 17.2969 137.435 16.2012C137.435 15.1113 137.619 14.1855 137.988 13.4238C138.357 12.6621 138.876 12.082 139.544 11.6836C140.212 11.2852 140.991 11.0859 141.882 11.0859ZM141.882 12.6416C141.231 12.6416 140.704 12.8525 140.3 13.2744C139.901 13.6963 139.667 14.3145 139.597 15.1289H144.026C144.021 14.6426 143.938 14.2119 143.78 13.8369C143.628 13.4619 143.394 13.1689 143.077 12.958C142.767 12.7471 142.368 12.6416 141.882 12.6416ZM153.369 11.0859C154.523 11.0859 155.449 11.5078 156.146 12.3516C156.85 13.1953 157.201 14.4492 157.201 16.1133C157.201 17.2148 157.037 18.1436 156.709 18.8994C156.387 19.6494 155.933 20.2178 155.347 20.6045C154.767 20.9854 154.09 21.1758 153.316 21.1758C152.824 21.1758 152.396 21.1113 152.033 20.9824C151.67 20.8535 151.359 20.6865 151.102 20.4814C150.844 20.2705 150.627 20.042 150.451 19.7959H150.328C150.357 20.0303 150.384 20.291 150.407 20.5781C150.437 20.8594 150.451 21.1172 150.451 21.3516V25.3154H148.377V11.2705H150.064L150.354 12.6152H150.451C150.633 12.3398 150.853 12.085 151.11 11.8506C151.374 11.6162 151.69 11.4316 152.06 11.2969C152.435 11.1562 152.871 11.0859 153.369 11.0859ZM152.815 12.7734C152.247 12.7734 151.79 12.8877 151.444 13.1162C151.104 13.3389 150.855 13.6758 150.697 14.127C150.545 14.5781 150.463 15.1436 150.451 15.8232V16.1133C150.451 16.834 150.524 17.4463 150.671 17.9502C150.823 18.4482 151.072 18.8291 151.418 19.0928C151.77 19.3506 152.244 19.4795 152.842 19.4795C153.346 19.4795 153.762 19.3418 154.09 19.0664C154.424 18.791 154.673 18.3984 154.837 17.8887C155.001 17.3789 155.083 16.7783 155.083 16.0869C155.083 15.0381 154.896 14.2236 154.521 13.6436C154.151 13.0635 153.583 12.7734 152.815 12.7734Z" fill="#171B31"/>
</svg>
